<?xml version='1.0' encoding='utf-8'?>
<svg xmlns="http://www.w3.org/2000/svg" width="3000" height="1500" viewBox="0 0 793.74998 396.87501" version="1.1" id="svg8"> <defs id="defs2"/> <metadata id="metadata5"> </metadata> <g id="layer1" transform="translate(0,99.875023)"> <path style="opacity:1;fill:#d8f2f7;fill-opacity:1;fill-rule:nonzero;stroke:none;stroke-width:5.54452324;stroke-linecap:butt;stroke-linejoin:miter;stroke-miterlimit:4;stroke-dasharray:22.1780934, 22.1780934;stroke-dashoffset:0;stroke-opacity:0.15686275;paint-order:markers stroke fill" d="M 787.03243,289.8679 755.44184,278.64517 738.20447,247.02685 706.55592,223.88093 673.49426,180.68964 643.16784,159.20452 617.89835,97.565559 588.89411,77.741232 560.98035,12.780681 545.123,-5.4775813 l -17.12988,-9.8911297 -13.13863,0.105204 -21.23688,-43.286001 -29.08698,-36.537545 -20.92255,20.224229 -23.59164,11.888664 -38.0193,17.018399 -34.00328,32.028695 L 336.2684,6.2234879 304.71084,1.4620845 285.14354,30.032406 268.22048,61.924324 227.57345,78.963756 205.40322,112.56908 150.44433,158.13675 115.04448,173.46277 98.121434,205.35464 68.12595,250.72237 27.462385,264.41916 6.5563412,289.8679 Z" id="path826"/> <path style="opacity:1;fill:#7e9fbf;fill-opacity:1;fill-rule:nonzero;stroke:none;stroke-width:5.54452324;stroke-linecap:butt;stroke-linejoin:miter;stroke-miterlimit:4;stroke-dasharray:22.1780934, 22.1780934;stroke-dashoffset:0;stroke-opacity:0.15686275;paint-order:markers stroke fill" d="m 464.53063,-95.087044 -7.57931,32.299126 -22.52539,4.581169 -8.36153,14.181889 -16.72309,10.636451 -8.36155,27.1820073 -29.72989,60.2731217 -21.36838,22.454701 47.38205,-23.636549 26.94273,2.363667 14.86497,-16.545566 14.86496,-5.909126 V 7.9755075 l 13.93589,-2.3636673 -7.43247,-35.4547822 21.36839,1.181839 17.65213,16.545557 15.39434,-3.147951 -21.23689,-43.286001 z" id="path830"/> <path style="opacity:1;fill:#b0d3ef;fill-opacity:1;fill-rule:nonzero;stroke:none;stroke-width:5.54452324;stroke-linecap:butt;stroke-linejoin:miter;stroke-miterlimit:4;stroke-dasharray:22.17809313, 22.17809313;stroke-dashoffset:0;stroke-opacity:0.15686275;paint-order:markers stroke fill" d="m 527.99299,-15.369034 -13.13832,0.105823 -15.39482,3.147532 -20.43875,33.091152 -25.08519,11.818565 -14.86452,5.908925 -14.86512,16.545557 14.86512,14.181709 15.7937,33.091131 47.38222,20.09136 28.80114,-17.7275 4.08431,-4.36422 53.5173,52.81899 39.02052,20.09136 26.9425,54.36389 -16.7231,-65.00054 -29.72966,-57.90948 -54.0838,-24.606685 0.19814,-0.211656 34.61927,-2.325895 -27.91388,-64.95996 -15.85715,-18.2582721 z" id="path832"/> <path style="opacity:1;fill:#7e9fbf;fill-opacity:1;fill-rule:nonzero;stroke:none;stroke-width:5.54452324;stroke-linecap:butt;stroke-linejoin:miter;stroke-miterlimit:4;stroke-dasharray:22.1780934, 22.1780934;stroke-dashoffset:0;stroke-opacity:0.15686275;paint-order:markers stroke fill" d="m 304.71084,1.4620845 -19.5673,28.5703125 -16.92306,31.891955 -14.96125,47.688208 -21.36838,43.72756 4.64529,23.63649 25.08464,4.72733 8.36154,-28.36382 13.00684,-18.90922 27.87181,-27.18201 6.50342,-27.182001 5.57433,-34.272933 13.32968,-39.5704681 z" id="path834"/> <path style="opacity:1;fill:#b0d3ef;fill-opacity:1;fill-rule:nonzero;stroke:none;stroke-width:5.54452324;stroke-linecap:butt;stroke-linejoin:miter;stroke-miterlimit:4;stroke-dasharray:22.17809313, 22.17809313;stroke-dashoffset:0;stroke-opacity:0.15686275;paint-order:markers stroke fill" d="m 391.67458,-42.566619 -43.68091,28.639667 -11.72517,20.1503637 -13.32949,39.5704103 -5.57491,34.273067 -6.50343,27.182211 11.14918,21.27255 32.5171,-37.818111 -4.64576,-14.182489 21.36859,-22.454444 29.73027,-60.2733885 8.3611,-27.1814075 z" id="path836"/> <path style="opacity:1;fill:#7e9fbf;fill-opacity:1;fill-rule:nonzero;stroke:none;stroke-width:5.54452324;stroke-linecap:butt;stroke-linejoin:miter;stroke-miterlimit:4;stroke-dasharray:22.17809313, 22.17809313;stroke-dashoffset:0;stroke-opacity:0.15686275;paint-order:markers stroke fill" d="m 401.90854,61.157455 -47.38159,29.546084 -32.5171,37.818111 -23.22685,17.7275 -27.87134,50.81863 -43.66627,30.72727 -10.06125,-34.45891 -18.73928,8.45862 6.21193,-15.80395 -6.21193,2.80419 3.24475,-8.25583 -51.24555,-22.40273 -35.39982,15.32644 -16.922864,31.89141 -29.99513,45.36782 -40.664147,13.69696 -20.9055769,25.44849 H 343.37777 l -84.54445,-60.89058 42.73713,-31.9092 16.72281,-48.45477 53.88566,-29.54608 40.8788,4.72773 10.21941,-48.454725 z" id="path838"/> <path style="opacity:1;fill:#b0d3ef;fill-opacity:1;fill-rule:nonzero;stroke:none;stroke-width:5.54452324;stroke-linecap:butt;stroke-linejoin:miter;stroke-miterlimit:4;stroke-dasharray:22.17809313, 22.17809313;stroke-dashoffset:0;stroke-opacity:0.15686275;paint-order:markers stroke fill" d="m 268.22075,61.924143 -40.64704,17.039984 -22.17067,33.604953 -7.32906,6.07694 -1.93006,-3.69123 1.26193,4.24463 -18.21401,15.10185 10.1724,3.67509 -5.3901,19.20432 10.39214,-17.39708 11.11678,4.01602 12.34059,12.61599 -5.25924,-10.05738 19.32673,6.98177 21.36793,-43.72782 z" id="path852"/> <path style="opacity:1;fill:#b0d3ef;fill-opacity:1;fill-rule:nonzero;stroke:none;stroke-width:5.54452324;stroke-linecap:butt;stroke-linejoin:miter;stroke-miterlimit:4;stroke-dasharray:22.1780934, 22.1780934;stroke-dashoffset:0;stroke-opacity:0.15686275;paint-order:markers stroke fill" d="m 444.64558,137.97636 -31.58786,-14.18169 -14.86513,21.27267 85.47351,30.72747 8.36155,-15.36375 z" id="path856"/> <path style="opacity:1;fill:#7e9fbf;fill-opacity:1;fill-rule:nonzero;stroke:none;stroke-width:5.54452324;stroke-linecap:butt;stroke-linejoin:miter;stroke-miterlimit:4;stroke-dasharray:22.1780934, 22.1780934;stroke-dashoffset:0;stroke-opacity:0.15686275;paint-order:markers stroke fill" d="m 398.19259,145.06734 -4.64529,40.18207 -10.21968,33.09113 18.58122,16.54556 50.16924,-1.1818 29.72993,-23.63654 1.85809,-34.27295 z" id="path858"/> <path style="opacity:1;fill:#b0d3ef;fill-opacity:1;fill-rule:nonzero;stroke:none;stroke-width:5.54452324;stroke-linecap:butt;stroke-linejoin:miter;stroke-miterlimit:4;stroke-dasharray:22.17809313, 22.17809313;stroke-dashoffset:0;stroke-opacity:0.15686275;paint-order:markers stroke fill" d="m 526.40271,148.61301 -16.9794,12.23955 13.04876,24.53719 -21.98526,-18.09589 -1.95546,1.40977 -5.57492,24.81835 1.85831,33.09113 -12.07768,23.63637 40.8788,14.18249 24.1554,25.43559 h 80.82849 l 26.01368,-17.16281 -35.30456,-24.81835 -13.93598,-35.45499 -32.51711,-5.90891 -3.71598,-31.90916 -13.93599,-11.81863 z" id="path860"/> <path style="opacity:1;fill:#b0d3ef;fill-opacity:1;fill-rule:nonzero;stroke:none;stroke-width:5.54452324;stroke-linecap:butt;stroke-linejoin:miter;stroke-miterlimit:4;stroke-dasharray:22.1780934, 22.1780934;stroke-dashoffset:0;stroke-opacity:0.15686275;paint-order:markers stroke fill" d="m 431.63875,246.70435 h 37.16243 l 23.22647,21.27288 -44.59487,-11.81824 z" id="path862"/> <path style="opacity:1;fill:#b0d3ef;fill-opacity:1;fill-rule:nonzero;stroke:none;stroke-width:5.54452324;stroke-linecap:butt;stroke-linejoin:miter;stroke-miterlimit:4;stroke-dasharray:22.1780934, 22.1780934;stroke-dashoffset:0;stroke-opacity:0.15686275;paint-order:markers stroke fill" d="m 330.37122,147.43097 11.14871,54.364 10.21968,14.18191 -6.50342,-20.09103 z" id="path864"/> <path style="opacity:1;fill:#b0d3ef;fill-opacity:1;fill-rule:nonzero;stroke:none;stroke-width:7.68596172;stroke-linecap:butt;stroke-linejoin:miter;stroke-miterlimit:4;stroke-dasharray:30.74384589, 30.74384589;stroke-dashoffset:0;stroke-opacity:0.15686275;paint-order:markers stroke fill" d="m 349.2743,168.68729 12.45831,31.3321 11.98255,9.47404 z" id="path866"/> <path style="opacity:1;fill:#b0d3ef;fill-opacity:1;fill-rule:nonzero;stroke:none;stroke-width:5.54452324;stroke-linecap:butt;stroke-linejoin:miter;stroke-miterlimit:4;stroke-dasharray:22.1780934, 22.1780934;stroke-dashoffset:0;stroke-opacity:0.15686275;paint-order:markers stroke fill" d="m 239.50265,184.57254 -3.28475,15.87786 -7.22638,11.69949 z" id="path868"/> <path style="opacity:1;fill:#b0d3ef;fill-opacity:1;fill-rule:nonzero;stroke:none;stroke-width:5.54452324;stroke-linecap:butt;stroke-linejoin:miter;stroke-miterlimit:4;stroke-dasharray:22.1780934, 22.1780934;stroke-dashoffset:0;stroke-opacity:0.15686275;paint-order:markers stroke fill" d="m 225.04985,154.48815 -7.22637,21.72759 -13.79583,13.37085 z" id="path870"/> <path style="opacity:1;fill:#7e9fbf;fill-opacity:1;fill-rule:nonzero;stroke:none;stroke-width:5.54452324;stroke-linecap:butt;stroke-linejoin:miter;stroke-miterlimit:4;stroke-dasharray:22.1780934, 22.1780934;stroke-dashoffset:0;stroke-opacity:0.15686275;paint-order:markers stroke fill" d="m 339.66182,233.7043 28.80084,9.45458 24.15557,20.09103 -35.30428,-3.54546 z" id="path877"/> <path style="opacity:1;fill:#b0d3ef;fill-opacity:1;fill-rule:nonzero;stroke:none;stroke-width:5.54452324;stroke-linecap:butt;stroke-linejoin:miter;stroke-miterlimit:4;stroke-dasharray:22.1780934, 22.1780934;stroke-dashoffset:0;stroke-opacity:0.15686275;paint-order:markers stroke fill" d="m 339.66182,233.7043 -19.51026,7.09093 12.07779,11.81829 25.0846,7.09093 z" id="path879"/> <path style="opacity:1;fill:#7e9fbf;fill-opacity:1;fill-rule:nonzero;stroke:none;stroke-width:5.54452324;stroke-linecap:butt;stroke-linejoin:miter;stroke-miterlimit:4;stroke-dasharray:22.1780934, 22.1780934;stroke-dashoffset:0;stroke-opacity:0.15686275;paint-order:markers stroke fill" d="m 606.30203,186.43125 57.60173,9.4546 31.58803,33.09113 34.37522,24.81834 -16.7231,15.36376 24.15556,4.72727 -54.81452,11.8183 -27.87181,-13.0001 -35.30427,-24.81835 -13.9359,-35.45479 z" id="path884"/> <path style="opacity:1;fill:#d8f2f7;fill-opacity:1;fill-rule:nonzero;stroke:none;stroke-width:5.54452324;stroke-linecap:butt;stroke-linejoin:miter;stroke-miterlimit:4;stroke-dasharray:22.1780934, 22.1780934;stroke-dashoffset:0;stroke-opacity:0.15686275;paint-order:markers stroke fill" d="M 601.941,116.41924 618.00602,157.2908 593.90849,121.52817 552.74188,88.320067 Z" id="path886"/> <path style="opacity:1;fill:#d8f2f7;fill-opacity:1;fill-rule:nonzero;stroke:none;stroke-width:5.54452324;stroke-linecap:butt;stroke-linejoin:miter;stroke-miterlimit:4;stroke-dasharray:22.1780934, 22.1780934;stroke-dashoffset:0;stroke-opacity:0.15686275;paint-order:markers stroke fill" d="m 465.38833,61.49809 35.14224,45.98049 -28.1138,-24.267448 z" id="path888"/> <path style="opacity:1;fill:#d8f2f7;fill-opacity:1;fill-rule:nonzero;stroke:none;stroke-width:5.54452324;stroke-linecap:butt;stroke-linejoin:miter;stroke-miterlimit:4;stroke-dasharray:22.1780934, 22.1780934;stroke-dashoffset:0;stroke-opacity:0.15686275;paint-order:markers stroke fill" d="M 389.07948,-16.413305 368.99819,18.072056 358.95756,52.557444 364.98193,5.299713 Z" id="path890"/> <path style="opacity:1;fill:#d8f2f7;fill-opacity:1;fill-rule:nonzero;stroke:none;stroke-width:5.54452324;stroke-linecap:butt;stroke-linejoin:miter;stroke-miterlimit:4;stroke-dasharray:22.1780934, 22.1780934;stroke-dashoffset:0;stroke-opacity:0.15686275;paint-order:markers stroke fill" d="m 256.6088,78.066118 -24.88014,10.136102 -2.57252,16.82052 z" id="path892"/> <path style="opacity:1;fill:#d8f2f7;fill-opacity:1;fill-rule:nonzero;stroke:none;stroke-width:5.54452324;stroke-linecap:butt;stroke-linejoin:miter;stroke-miterlimit:4;stroke-dasharray:22.1780934, 22.1780934;stroke-dashoffset:0;stroke-opacity:0.15686275;paint-order:markers stroke fill" d="m 195.34742,127.86691 21.10915,-0.0639 3.88789,10.37681 z" id="path894"/> <path style="opacity:1;fill:#b0d3ef;fill-opacity:1;fill-rule:nonzero;stroke:none;stroke-width:5.54452324;stroke-linecap:butt;stroke-linejoin:miter;stroke-miterlimit:4;stroke-dasharray:22.1780934, 22.1780934;stroke-dashoffset:0;stroke-opacity:0.15686275;paint-order:markers stroke fill" d="m 153.752,193.85168 -50.83072,47.7367 65.26415,8.94065 19.0772,19.15851 38.15442,-5.10894 -1.38059,-22.19199 z" id="path896"/> <path style="opacity:1;fill:#d8f2f7;fill-opacity:1;fill-rule:nonzero;stroke:none;stroke-width:5.54452324;stroke-linecap:butt;stroke-linejoin:miter;stroke-miterlimit:4;stroke-dasharray:22.17809313, 22.17809313;stroke-dashoffset:0;stroke-opacity:0.15686275;paint-order:markers stroke fill" d="m 153.75229,193.85157 5.09223,12.41566 -18.68718,22.13209 22.44189,-12.97631 3.20154,7.80505 58.23544,19.15827 -14.05665,-28.09921 -23.09348,1.27728 z" id="path898"/> <path id="path903" d="m 430.19448,77.207137 5.59568,34.382933 9.62254,13.12493 z" style="opacity:1;fill:#b0d3ef;fill-opacity:1;fill-rule:nonzero;stroke:none;stroke-width:7.68596172;stroke-linecap:butt;stroke-linejoin:miter;stroke-miterlimit:4;stroke-dasharray:30.74384589, 30.74384589;stroke-dashoffset:0;stroke-opacity:0.15686275;paint-order:markers stroke fill"/> <path id="path905" d="M 602.94506,231.37048 619.01008,272.24203 600.93694,249.25177 549.7297,213.4892 Z" style="opacity:1;fill:#d8f2f7;fill-opacity:1;fill-rule:nonzero;stroke:none;stroke-width:5.54452324;stroke-linecap:butt;stroke-linejoin:miter;stroke-miterlimit:4;stroke-dasharray:22.1780934, 22.1780934;stroke-dashoffset:0;stroke-opacity:0.15686275;paint-order:markers stroke fill"/> <path style="opacity:1;fill:#b0d3ef;fill-opacity:1;fill-rule:nonzero;stroke:none;stroke-width:3.73172832;stroke-linecap:butt;stroke-linejoin:miter;stroke-miterlimit:4;stroke-dasharray:14.92691322, 14.92691322;stroke-dashoffset:0;stroke-opacity:0.15686275;paint-order:markers stroke fill" d="m 418.37927,188.87417 -4.65552,13.75426 -7.74748,16.28996 13.15376,-13.71103 z" id="path907"/> <path style="opacity:1;fill:#b0d3ef;fill-opacity:1;fill-rule:nonzero;stroke:none;stroke-width:5.54452324;stroke-linecap:butt;stroke-linejoin:miter;stroke-miterlimit:4;stroke-dasharray:22.1780934, 22.1780934;stroke-dashoffset:0;stroke-opacity:0.15686275;paint-order:markers stroke fill" d="m 454.63771,170.28226 -4.89851,27.19608 -8.15432,18.78444 12.75873,-16.60406 z" id="path909"/> </g> </svg>